<svg xmlns="http://www.w3.org/2000/svg"  viewBox="0 0 48 48" width="48px" height="48px" baseProfile="basic"><path fill="#ff6201" d="M34.725,23.376c-0.391-0.632-1.31-0.632-1.701,0l-4.763,7.705 c-0.392,0.635-1.316,0.632-1.704-0.005L18.214,17.4c-0.39-0.639-1.318-0.639-1.707,0L4.854,36.503C5.531,36.815,6.277,37,7.071,37 h33.609c0.776,0,1.508-0.175,2.173-0.474L34.725,23.376z" opacity=".1"/><path fill="#ff6201" d="M34.725,23.376c-0.391-0.632-1.31-0.632-1.701,0l-4.763,7.705 c-0.392,0.635-1.316,0.632-1.704-0.005L18.214,17.4c-0.39-0.639-1.318-0.639-1.707,0L5.243,35.866 c0.624,0.292,1.314,0.468,2.048,0.468h33.168c0.715,0,1.39-0.164,2.001-0.442L34.725,23.376z" opacity=".2"/><path fill="#ff6201" d="M34.725,23.376c-0.391-0.632-1.31-0.632-1.701,0l-4.763,7.705 c-0.392,0.635-1.316,0.632-1.704-0.005L18.214,17.4c-0.39-0.639-1.318-0.639-1.707,0L5.631,35.229 c0.572,0.273,1.205,0.438,1.88,0.438h32.727c0.655,0,1.271-0.153,1.829-0.41L34.725,23.376z" opacity=".4"/><path fill="#ff6201" d="M34.725,23.376c-0.391-0.632-1.31-0.632-1.701,0l-4.763,7.705 c-0.392,0.635-1.316,0.632-1.704-0.005L18.214,17.4c-0.39-0.639-1.318-0.639-1.707,0L6.02,34.592C6.54,34.845,7.116,35,7.732,35 h32.286c0.594,0,1.152-0.142,1.657-0.379L34.725,23.376z" opacity=".5"/><path fill="#ff6201" d="M34.725,23.376c-0.391-0.632-1.31-0.632-1.701,0l-4.763,7.705 c-0.392,0.635-1.316,0.632-1.704-0.005L18.214,17.4c-0.39-0.639-1.318-0.639-1.707,0L6.409,33.954 c0.468,0.234,0.987,0.379,1.544,0.379h31.845c0.533,0,1.033-0.131,1.485-0.347L34.725,23.376z" opacity=".6"/><linearGradient id="w8KERw2QukUaAP0GM2Iwza" x1="23.875" x2="23.875" y1="34.763" y2="12.181" gradientUnits="userSpaceOnUse"><stop offset="0" stop-color="#ff6201"/><stop offset=".689" stop-color="#fdbd19"/><stop offset="1" stop-color="#fce724"/></linearGradient><path fill="url(#w8KERw2QukUaAP0GM2Iwza)" d="M8.063,10h31.625c1.787,0,3.25,1.462,3.25,3.25v17.5c0,1.788-1.463,3.25-3.25,3.25H8.063	c-1.788,0-3.25-1.462-3.25-3.25v-17.5C4.813,11.462,6.275,10,8.063,10z"/><path fill="#ff8955" d="M8.063,34h31.625c1.131,0,2.128-0.587,2.711-1.469l-6.216-10.056 c-1.064-1.721-3.559-1.711-4.617,0l-3.716,6.012c-0.168,0.272-0.632,0.38-0.798,0.108l-7.374-12.088 c-1.054-1.726-3.572-1.74-4.634,0.001L5.313,32.459C5.888,33.38,6.903,34,8.063,34z" opacity=".1"/><path fill="#ff8955" d="M8.063,34h31.625c0.968,0,1.83-0.437,2.427-1.114L35.818,22.7 c-0.896-1.448-2.997-1.441-3.888,0l-3.978,6.435c-0.224,0.363-0.803,0.443-1.025,0.079l-7.616-12.485 c-0.888-1.454-3.008-1.464-3.902,0l-9.82,16.1C6.186,33.538,7.069,34,8.063,34z" opacity=".2"/><path fill="#ff8955" d="M8.063,34h31.625c0.81,0,1.543-0.311,2.114-0.805l-6.348-10.27 c-0.727-1.176-2.435-1.172-3.159,0l-4.239,6.858c-0.28,0.453-0.974,0.506-1.251,0.051l-7.858-12.882 c-0.722-1.183-2.445-1.189-3.171,0l-9.88,16.198C6.472,33.672,7.228,34,8.063,34z" opacity=".25"/><path fill="#ff8955" d="M8.063,34h31.625c0.655,0,1.264-0.2,1.776-0.536l-6.374-10.313 c-0.559-0.904-1.873-0.902-2.43,0l-4.501,7.282c-0.336,0.544-1.145,0.569-1.478,0.023l-8.1-13.279 c-0.556-0.911-1.881-0.914-2.439,0l-9.912,16.25C6.752,33.787,7.383,34,8.063,34z" opacity=".3"/><path fill="#ff8955" d="M34.725,23.376c-0.391-0.632-1.31-0.632-1.701,0l-4.763,7.705 c-0.392,0.635-1.316,0.632-1.704-0.005L18.214,17.4c-0.39-0.639-1.318-0.639-1.707,0L6.603,33.636C7.044,33.861,7.536,34,8.063,34 h31.625c0.502,0,0.973-0.125,1.399-0.331L34.725,23.376z" opacity=".4"/><radialGradient id="w8KERw2QukUaAP0GM2Iwzb" cx="28" cy="17" r="4.844" gradientUnits="userSpaceOnUse"><stop offset=".384" stop-color="#ff6f01"/><stop offset="1" stop-color="#ff6f01" stop-opacity="0"/></radialGradient><path fill="url(#w8KERw2QukUaAP0GM2Iwzb)" d="M28,12c-2.761,0-5,2.239-5,5s2.239,5,5,5	s5-2.239,5-5S30.761,12,28,12z"/><path fill="#fff" d="M28,14c-1.657,0-3,1.343-3,3s1.343,3,3,3s3-1.343,3-3S29.657,14,28,14z"/><linearGradient id="w8KERw2QukUaAP0GM2Iwzc" x1="23.848" x2="23.848" y1="19.832" y2="40.595" gradientUnits="userSpaceOnUse"><stop offset="0" stop-color="#fff" stop-opacity=".4"/><stop offset="1" stop-color="#f4805d" stop-opacity=".3"/></linearGradient><path fill="url(#w8KERw2QukUaAP0GM2Iwzc)" d="M33.023,23.376l-4.762,7.705	c-0.392,0.634-1.316,0.632-1.704-0.005L18.214,17.4c-0.39-0.639-1.318-0.639-1.707,0L4.576,36.959C3.763,38.291,4.722,40,6.284,40	h35.129c1.566,0,2.525-1.719,1.701-3.052l-8.389-13.572C34.334,22.744,33.414,22.744,33.023,23.376z"/><linearGradient id="w8KERw2QukUaAP0GM2Iwzd" x1="23.848" x2="23.848" y1="17.96" y2="45.413" gradientUnits="userSpaceOnUse"><stop offset="0" stop-color="ivory" stop-opacity=".2"/><stop offset="1" stop-color="#f4805d" stop-opacity=".2"/></linearGradient><path fill="url(#w8KERw2QukUaAP0GM2Iwzd)" d="M17.36,17.42	c0.084,0,0.295,0.023,0.427,0.24l8.342,13.676c0.275,0.45,0.753,0.719,1.281,0.719c0.524,0,1.001-0.266,1.276-0.711l4.762-7.705	c0.132-0.214,0.341-0.237,0.425-0.237s0.293,0.023,0.425,0.237l8.389,13.572c0.29,0.469,0.303,1.037,0.034,1.519	c-0.269,0.482-0.758,0.77-1.31,0.77H6.284c-0.55,0-1.039-0.286-1.308-0.766c-0.269-0.479-0.259-1.046,0.027-1.515L16.934,17.66	C17.066,17.444,17.276,17.42,17.36,17.42 M17.36,16.92c-0.329,0-0.659,0.16-0.854,0.479L4.576,36.959	C3.763,38.291,4.722,40,6.284,40h35.129c1.566,0,2.525-1.719,1.701-3.052l-8.389-13.572c-0.195-0.316-0.523-0.474-0.851-0.474	s-0.655,0.158-0.851,0.474l-4.762,7.705c-0.195,0.316-0.523,0.474-0.851,0.474c-0.33,0-0.659-0.16-0.854-0.479L18.214,17.4	C18.019,17.08,17.69,16.92,17.36,16.92L17.36,16.92z"/></svg>